<?xml version="1.0" standalone="no"?>
<!DOCTYPE svg PUBLIC "-//W3C//DTD SVG 20010904//EN"
 "http://www.w3.org/TR/2001/REC-SVG-20010904/DTD/svg10.dtd">
<svg version="1.0" xmlns="http://www.w3.org/2000/svg"
 width="300.000000pt" height="300.000000pt" viewBox="0 0 300.000000 300.000000"
 preserveAspectRatio="xMidYMid meet">
<metadata>
Created by potrace 1.11, written by Peter Selinger 2001-2013
</metadata>
<g transform="translate(0.000000,300.000000) scale(0.100000,-0.100000)"
fill="#000000" stroke="none">
<path d="M0 1500 l0 -1500 1500 0 1500 0 0 1500 0 1500 -1500 0 -1500 0 0
-1500z m1305 726 c35 -15 40 -26 36 -77 -6 -87 161 -115 234 -39 21 22 28 40
29 71 1 38 4 43 30 50 47 13 80 -8 84 -53 4 -47 -30 -74 -79 -63 -28 6 -36 2
-80 -41 -27 -27 -49 -53 -49 -59 0 -11 110 -171 122 -177 4 -1 39 41 78 95 71
97 94 113 119 83 21 -26 4 -52 -137 -208 -22 -24 -23 -29 -11 -45 13 -16 12
-17 -4 -4 -16 12 -25 6 -94 -62 l-77 -76 27 -29 c26 -27 35 -52 19 -52 -4 0
-16 14 -26 31 -12 20 -24 29 -35 26 -67 -22 -68 -22 -47 1 21 24 21 24 -92
146 l-46 49 -35 -39 c-19 -21 -28 -28 -19 -14 8 14 21 35 28 46 12 20 6 30
-83 130 -54 59 -97 110 -97 113 0 3 12 14 25 24 l25 18 52 -58 c29 -31 72 -77
94 -102 l41 -44 46 68 46 68 -21 29 c-11 16 -31 33 -44 38 -13 5 -24 16 -24
25 0 11 -11 15 -38 15 -58 0 -76 18 -69 68 5 41 4 42 -25 42 -17 0 -27 4 -23
10 9 15 81 12 120 -4z m667 -357 c29 -6 64 -21 77 -33 20 -18 22 -27 18 -73
-3 -29 -1 -55 4 -58 12 -8 12 -71 -1 -95 -14 -26 -61 -40 -107 -30 -21 4 -55
11 -76 14 -33 6 -36 9 -22 22 8 9 16 30 17 47 1 18 2 43 3 57 1 14 6 34 11 45
4 11 9 41 9 67 0 27 3 48 7 48 4 0 31 -5 60 -11z m-922 -54 c27 -28 31 -85 9
-111 -10 -13 -5 -23 35 -63 46 -47 47 -48 24 -54 -37 -11 -58 -8 -58 7 0 19
-64 66 -90 66 -19 0 -20 -4 -14 -37 4 -21 11 -44 16 -50 11 -13 6 -16 -39 -26
-17 -4 -22 -1 -20 12 3 25 -13 111 -21 111 -4 0 -8 23 -9 50 0 28 -8 61 -17
74 -15 24 -15 24 32 34 87 18 126 15 152 -13z m1165 -39 c-7 -11 -16 -39 -20
-61 -4 -22 -10 -49 -15 -60 -16 -36 -29 -96 -24 -110 5 -11 -1 -12 -29 -3 -34
10 -34 11 -20 40 8 16 16 47 17 69 0 21 4 39 7 39 10 0 32 88 27 108 -5 18 -2
18 33 10 36 -10 37 -11 24 -32z m177 -27 c45 -16 84 -32 86 -33 1 -2 -2 -15
-7 -29 l-10 -25 -47 24 c-60 30 -70 30 -78 -1 -8 -33 -2 -42 34 -50 34 -8 33
-5 20 -40 -9 -25 -11 -25 -32 -11 -32 23 -47 20 -59 -11 -12 -33 -6 -39 58
-55 50 -13 51 -14 39 -40 l-11 -26 -80 31 c-44 16 -81 31 -82 31 -1 1 7 21 18
43 11 23 22 52 23 65 2 12 13 45 25 73 12 27 20 57 18 67 -3 10 -4 18 -2 18 2
0 41 -14 87 -31z m-1652 -100 c25 -29 60 -69 78 -90 l32 -37 -24 -6 c-13 -3
-31 -8 -38 -11 -10 -4 -14 1 -14 17 1 25 -17 28 -68 8 -23 -8 -27 -15 -22 -34
5 -19 0 -24 -29 -33 -31 -10 -34 -9 -26 5 4 10 11 57 15 107 3 49 9 107 13
128 6 38 6 39 22 19 9 -11 36 -44 61 -73z m1861 6 c69 -36 89 -58 89 -102 0
-41 -31 -83 -62 -83 -20 0 -22 -16 -9 -92 l8 -46 -31 15 c-29 13 -31 18 -32
70 -1 42 -5 59 -19 69 -10 8 -22 14 -25 14 -8 0 -35 -71 -34 -87 1 -8 -9 -7
-31 4 l-33 16 24 35 c14 20 27 47 31 61 3 13 17 41 30 60 14 20 27 48 30 64 3
15 7 27 10 27 2 0 26 -11 54 -25z m-2099 -12 c9 -8 20 -27 23 -43 3 -16 16
-32 31 -38 45 -21 54 -91 16 -125 -10 -8 -44 -26 -77 -40 -54 -23 -60 -24 -63
-9 -7 36 -35 102 -43 102 -5 0 -9 9 -9 20 0 29 -30 100 -43 100 -21 0 9 20 59
40 51 20 77 18 106 -7z m1288 -325 c0 -2 -16 -47 -34 -101 -34 -97 -46 -123
-46 -97 0 10 -3 10 -15 0 -12 -10 -18 -10 -29 -1 -10 8 -16 9 -21 2 -7 -12
-55 -11 -72 1 -6 5 -14 5 -18 -2 -12 -19 -38 -11 -32 10 3 11 4 20 3 20 -18 0
-79 -29 -106 -50 -47 -37 -149 -89 -180 -92 -74 -8 22 69 140 113 65 24 80 35
80 59 0 15 -10 19 -60 22 l-60 3 -15 -37 c-23 -58 -26 -45 -4 19 10 31 17 58
15 60 -2 3 -13 0 -24 -6 -26 -14 -32 -14 -32 0 0 22 118 64 173 60 26 -2 21
-37 -10 -59 l-26 -19 31 -11 c24 -8 32 -17 32 -35 0 -21 4 -24 28 -19 15 3 36
11 47 18 23 16 39 18 30 4 -3 -5 -2 -10 3 -10 6 0 8 -9 5 -20 -8 -29 9 -25 42
10 16 17 33 30 38 30 6 0 -2 -11 -17 -25 -43 -40 -28 -45 17 -6 17 15 18 14
11 -13 -6 -26 -5 -27 13 -16 11 8 30 47 48 101 16 49 32 89 37 89 4 0 8 -1 8
-2z m-772 -175 c-103 -2 -274 -2 -380 0 -106 1 -22 2 187 2 209 0 296 -1 193
-2z m1390 0 c-103 -2 -274 -2 -380 0 -106 1 -22 2 187 2 209 0 296 -1 193 -2z
m-2177 -200 c1 -10 0 -22 -1 -28 -1 -5 -2 -34 -2 -62 1 -53 -13 -77 -28 -52
-7 11 -7 57 -1 147 1 19 31 14 32 -5z m81 -48 c2 -39 -1 -65 -7 -65 -6 0 -10
28 -10 65 0 84 12 84 17 0z m58 34 c0 -28 -15 -23 -16 6 -1 14 2 22 7 19 5 -3
9 -14 9 -25z m209 -31 c-1 -68 -6 -61 -11 15 -2 26 0 47 4 47 5 0 7 -28 7 -62z
m304 44 c-3 -14 4 -22 26 -32 38 -15 49 -46 25 -69 -14 -12 -15 -12 -7 -1 14
18 8 29 -29 53 -26 16 -36 45 -21 60 10 11 11 8 6 -11z m54 -4 c-3 -8 -6 -5
-6 6 -1 11 2 17 5 13 3 -3 4 -12 1 -19z m55 -43 c2 -39 -1 -65 -7 -65 -6 0
-10 28 -10 65 0 84 12 84 17 0z m351 -3 c2 -50 -1 -62 -13 -62 -11 0 -15 11
-14 44 2 45 13 91 20 83 2 -2 5 -32 7 -65z m37 58 c0 -5 -2 -10 -4 -10 -3 0
-8 5 -11 10 -3 6 -1 10 4 10 6 0 11 -4 11 -10z m462 -55 c2 -39 -1 -65 -7 -65
-6 0 -10 28 -10 65 0 84 12 84 17 0z m430 0 c2 -39 -1 -65 -7 -65 -6 0 -10 28
-10 65 0 84 12 84 17 0z m516 15 c0 -23 -5 -40 -12 -40 -7 0 -8 -3 -1 -8 6 -4
12 -22 13 -40 2 -27 -1 -33 -15 -30 -14 3 -18 14 -18 51 -1 26 4 47 9 47 6 0
5 5 -2 12 -16 16 -15 45 1 51 20 7 26 -2 25 -43z m-574 -39 c1 -22 -1 -38 -6
-35 -4 3 -8 24 -8 46 0 52 12 43 14 -11z m-1752 -6 c2 -19 1 -35 -3 -35 -4 0
-9 18 -11 39 -4 48 8 45 14 -4z m52 2 c1 -20 -3 -37 -9 -37 -5 0 -10 18 -10
40 0 50 18 47 19 -3z m124 -3 c-2 -15 -10 -30 -18 -32 -13 -5 -13 -3 -1 11 8
11 11 27 6 44 -5 21 -4 25 5 17 6 -6 10 -24 8 -40z m38 20 c-4 -15 -2 -33 6
-42 11 -16 10 -16 -6 0 -13 11 -17 24 -12 42 3 14 9 26 12 26 4 0 3 -12 0 -26z
m41 4 c-3 -8 -6 -5 -6 6 -1 11 2 17 5 13 3 -3 4 -12 1 -19z m55 -18 c2 -24 -1
-40 -7 -40 -6 0 -10 18 -10 40 0 22 3 40 6 40 4 0 9 -18 11 -40z m270 0 c2
-23 -1 -40 -7 -40 -5 0 -10 18 -10 40 0 22 3 40 6 40 4 0 9 -18 11 -40z m46
20 c-10 -16 -10 -24 0 -41 11 -18 11 -20 0 -17 -24 8 -23 78 2 78 6 0 5 -7 -2
-20z m62 -20 c0 -10 -6 -22 -12 -28 -10 -8 -13 -2 -13 28 0 30 3 36 13 28 6
-6 12 -18 12 -28z m38 20 c-9 -14 -10 -25 -3 -37 13 -23 7 -73 -8 -73 -8 0
-12 22 -12 65 0 55 3 65 18 65 15 0 15 -3 5 -20z m58 -6 c4 -16 2 -31 -7 -39
-12 -12 -14 -8 -14 25 0 45 11 53 21 14z m139 -13 c0 -30 -3 -37 -12 -29 -16
13 -17 40 -1 56 7 7 12 12 13 12 0 0 0 -18 0 -39z m55 19 c12 -22 -2 -60 -22
-60 -7 0 -6 5 2 15 7 8 10 25 6 40 -8 30 -1 33 14 5z m80 10 c0 -5 -7 -7 -16
-3 -14 5 -16 0 -12 -30 3 -29 0 -37 -12 -37 -11 0 -15 10 -15 39 0 35 2 38 28
39 15 0 27 -3 27 -8z m120 0 c0 -5 -7 -7 -15 -4 -16 6 -32 -37 -20 -55 3 -6 0
-11 -7 -11 -8 0 -13 13 -13 39 0 35 2 38 28 39 15 0 27 -3 27 -8z m46 -10 c9
0 12 5 9 10 -3 6 -1 10 4 10 6 0 11 -7 11 -15 0 -9 -9 -15 -25 -15 -27 0 -33
-18 -12 -39 10 -11 9 -13 -3 -9 -8 3 -16 15 -18 27 -4 27 8 62 15 44 3 -7 11
-13 19 -13z m64 10 c0 -5 -5 -10 -11 -10 -5 0 -7 5 -4 10 3 6 8 10 11 10 2 0
4 -4 4 -10z m46 -17 c3 -16 7 -34 10 -40 2 -7 -3 -13 -10 -13 -9 0 -15 15 -18
40 -4 45 8 54 18 13z m140 5 c-1 -14 5 -23 14 -23 9 0 15 9 14 23 0 16 5 22
20 21 12 0 15 -3 9 -6 -7 -2 -13 -13 -13 -24 0 -12 -10 -21 -27 -26 l-28 -7
33 -8 c24 -7 32 -14 31 -31 -1 -15 -3 -17 -6 -6 -2 9 -17 19 -32 22 -23 5 -28
11 -29 38 -1 29 4 49 12 49 1 0 2 -10 2 -22z m88 -4 c-3 -14 1 -33 8 -42 11
-13 10 -14 -2 -10 -16 5 -25 40 -16 64 9 23 15 16 10 -12z m46 11 c0 -8 -4
-15 -8 -15 -5 0 -9 7 -9 15 0 8 4 15 9 15 4 0 8 -7 8 -15z m48 -2 c-6 -7 -8
-24 -6 -38 3 -15 1 -25 -6 -25 -6 0 -11 17 -11 39 0 31 4 39 17 38 13 -1 14
-4 6 -14z m54 -28 c3 -24 0 -35 -9 -35 -9 0 -13 14 -13 41 0 48 16 44 22 -6z
m143 6 c1 -22 -3 -37 -7 -35 -14 9 -8 75 6 74 1 0 1 -18 1 -39z m43 14 c-3 -3
-9 2 -12 12 -6 14 -5 15 5 6 7 -7 10 -15 7 -18z m50 8 c-6 -7 -8 -24 -6 -38 3
-15 1 -25 -6 -25 -6 0 -11 17 -11 39 0 31 4 39 17 38 13 -1 14 -4 6 -14z m49
-26 c3 -50 -14 -47 -19 3 -2 25 0 39 7 37 5 -2 11 -20 12 -40z m55 -2 c2 -20
0 -35 -7 -35 -5 0 -10 18 -10 39 0 47 11 45 17 -4z m43 6 c0 -22 -3 -37 -7
-34 -14 8 -8 73 6 73 1 0 1 -18 1 -39z m43 14 c-3 -3 -9 2 -12 12 -6 14 -5 15
5 6 7 -7 10 -15 7 -18z m44 -15 c2 -23 -1 -40 -7 -40 -5 0 -10 18 -10 40 0 22
3 40 6 40 4 0 9 -18 11 -40z m57 -17 c1 -13 -3 -23 -9 -23 -5 0 -10 19 -9 43
0 32 2 37 9 22 5 -11 9 -30 9 -42z m-2319 11 c0 -27 -18 -23 -22 6 -4 24 -2
27 9 19 7 -7 13 -17 13 -25z m1379 0 c-10 -13 -10 -17 2 -25 11 -7 9 -9 -8 -9
-27 0 -31 25 -5 39 24 14 26 13 11 -5z m-1343 -14 c0 -11 -4 -20 -8 -20 -10 0
-11 24 -1 33 9 9 9 10 9 -13z m1509 -39 c-3 -6 3 -14 12 -20 10 -6 13 -11 7
-11 -15 0 -36 25 -27 33 10 10 15 8 8 -2z"/>
<path d="M1258 2209 c-22 -12 -24 -62 -4 -79 21 -16 56 -9 72 15 28 42 -24 91
-68 64z"/>
<path d="M1627 2200 c-27 -39 8 -89 53 -75 24 7 37 51 23 74 -16 25 -59 26
-76 1z"/>
<path d="M1460 2020 c0 -5 5 -10 11 -10 5 0 7 5 4 10 -3 6 -8 10 -11 10 -2 0
-4 -4 -4 -10z"/>
<path d="M1790 2000 c0 -5 5 -10 10 -10 6 0 10 5 10 10 0 6 -4 10 -10 10 -5 0
-10 -4 -10 -10z"/>
<path d="M1408 1913 c-54 -64 -56 -68 -40 -86 13 -15 14 -22 4 -38 -12 -18 -7
-27 39 -80 28 -32 57 -59 64 -59 22 0 147 157 138 173 -10 18 -138 157 -144
157 -2 0 -30 -31 -61 -67z"/>
<path d="M1470 1620 c0 -5 5 -10 10 -10 6 0 10 5 10 10 0 6 -4 10 -10 10 -5 0
-10 -4 -10 -10z"/>
<path d="M1956 1804 c-3 -9 -6 -25 -6 -35 0 -17 6 -20 33 -17 43 4 52 43 12
58 -33 13 -32 13 -39 -6z"/>
<path d="M1937 1694 c-4 -4 -7 -18 -7 -30 0 -26 29 -38 71 -32 24 3 38 33 22
48 -12 12 -77 23 -86 14z"/>
<path d="M943 1783 c-15 -5 -17 -41 -4 -62 12 -19 68 -5 82 20 19 36 -29 62
-78 42z"/>
<path d="M690 1600 c0 -19 20 -27 33 -13 8 7 -11 33 -24 33 -5 0 -9 -9 -9 -20z"/>
<path d="M2560 1591 c-17 -32 -12 -50 20 -66 36 -19 35 -19 54 1 24 24 19 42
-16 64 -41 25 -45 25 -58 1z"/>
<path d="M418 1610 c-14 -9 -15 -16 -6 -40 12 -35 15 -36 46 -14 45 32 8 82
-40 54z"/>
<path d="M478 1514 c-35 -15 -36 -17 -26 -45 12 -34 22 -36 66 -9 34 21 40 38
20 58 -15 15 -14 15 -60 -4z"/>
<path d="M1378 1273 c-15 -4 -34 -50 -24 -60 5 -5 96 54 96 62 0 6 -48 4 -72
-2z"/>
<path d="M1539 1138 l-12 -23 24 20 c13 11 26 21 28 22 2 2 -3 3 -12 3 -9 0
-22 -10 -28 -22z"/>
<path d="M1334 1091 c-55 -26 -88 -51 -68 -51 10 0 134 70 134 75 0 7 -1 7
-66 -24z"/>
</g>
</svg>
